<?xml version="1.0" encoding="UTF-8" standalone="no"?>
<!-- Created with Inkscape (http://www.inkscape.org/) -->

<svg
   xmlns:dc="http://purl.org/dc/elements/1.1/"
   xmlns:cc="http://creativecommons.org/ns#"
   xmlns:rdf="http://www.w3.org/1999/02/22-rdf-syntax-ns#"
   xmlns:svg="http://www.w3.org/2000/svg"
   xmlns="http://www.w3.org/2000/svg"
   xmlns:sodipodi="http://sodipodi.sourceforge.net/DTD/sodipodi-0.dtd"
   xmlns:inkscape="http://www.inkscape.org/namespaces/inkscape"
   id="svg3390"
   version="1.1"
   inkscape:version="0.91 r13725"
   width="225"
   height="225"
   viewBox="0 0 225 225"
   sodipodi:docname="logo.svg">
  <metadata
     id="metadata3396">
    <rdf:RDF>
      <cc:Work
         rdf:about="">
        <dc:format>image/svg+xml</dc:format>
        <dc:type
           rdf:resource="http://purl.org/dc/dcmitype/StillImage" />
      </cc:Work>
    </rdf:RDF>
  </metadata>
  <defs
     id="defs3394" />
  <sodipodi:namedview
     pagecolor="#ffffff"
     bordercolor="#666666"
     borderopacity="1"
     objecttolerance="10"
     gridtolerance="10"
     guidetolerance="10"
     inkscape:pageopacity="0"
     inkscape:pageshadow="2"
     inkscape:window-width="1056"
     inkscape:window-height="603"
     id="namedview3392"
     showgrid="false"
     inkscape:zoom="2.2444444"
     inkscape:cx="112.05446"
     inkscape:cy="130.32178"
     inkscape:window-x="249"
     inkscape:window-y="0"
     inkscape:window-maximized="0"
     inkscape:current-layer="svg3390" />
  <path
     style="fill:#02b3e0;fill-opacity:1"
     d="M 70.314993,223.99239 C 35.579553,218.91371 7.5497403,191.37412 1.5156063,156.39625 0.24312137,149.02009 0.02523637,138.54251 0.24044337,95.076603 L 0.50000037,42.653202 36.5,21.393997 72.500003,0.13479367 l 4.5,2.62193393 c 2.475,1.442064 5.73465,3.324235 7.24367,4.182603 l 2.74368,1.560669 0.006,56.5399024 c 0.005,46.876088 0.26128,57.518748 1.49799,62.266798 4.13587,15.87866 16.108097,30.51506 31.096597,38.0165 4.91528,2.46 16.42756,6.6768 18.22832,6.6768 0.95603,0 3.35887,-5.15623 5.3591,-11.5 0.93066,-2.95163 1.40053,-19.94348 1.79277,-64.831657 l 0.53157,-60.83166 18,-9.453714 c 9.9,-5.199542 24.54085,-12.855767 32.53521,-17.0138334 l 14.53522,-7.56011993 7.21478,4.34030893 7.21479,4.340308 -0.0349,54.5051844 c -0.0375,58.635553 -0.3978,63.845993 -5.24426,75.844593 -4.15389,10.28402 -8.79804,17.19955 -17.22085,25.64335 -7.61884,7.63782 -9.85815,9.0779 -47,30.22522 -25.84746,14.71668 -41.57773,23.05932 -46.64351,24.73765 -12.658017,4.19368 -25.827817,5.40563 -38.541497,3.54676 z m 32.621757,-17.08198 c 4.64021,-1.59096 10.87435,-4.35914 13.85366,-6.15153 C 122.45506,197.35096 133,187.87835 133,186.19767 c 0,-0.5363 -1.6875,-1.27509 -3.75,-1.64177 -2.0625,-0.36667 -8.46393,-2.94928 -14.22541,-5.73914 -9.33036,-4.51799 -11.52032,-6.12423 -20.034797,-14.69461 C 84.939073,154.00546 80.512733,147.03251 75.868633,134 c -2.29746,-6.44722 -2.3189,-6.94533 -2.64027,-61.338639 -0.30221,-51.150757 -0.43847,-54.794961 -2.02618,-54.189134 -2.05624,0.784604 -50.534001,29.078118 -54.510159,31.814257 l -2.807977,1.932271 0.358388,50.640625 c 0.398005,56.23873 0.351679,55.79962 7.36567,69.81663 15.331189,30.63838 49.664798,45.09074 81.328645,34.2344 z m 62.70791,-37.99503 c 12.05085,-3.6645 27.80338,-13.56901 33.5357,-21.08578 4.26856,-5.59736 8.90346,-15.73555 10.38129,-22.7076 1.09793,-5.1798 1.4074,-17.67481 1.42099,-57.371999 0.01,-27.9125 -0.25101,-50.75 -0.57902,-50.75 -0.32801,0 -11.80301,5.89063 -25.5,13.090289 L 160,43.180578 159.9761,101.34029 c -0.0219,53.51393 -0.28159,60.83983 -2.38914,67.40971 -0.88707,2.76529 -0.51718,2.77288 8.05766,0.16538 z"
     id="path3418"
     inkscape:connector-curvature="0" />
</svg>
